<?xml version="1.0" encoding="UTF-8"?>
<svg id="SVGDoc" width="313" height="361" xmlns="http://www.w3.org/2000/svg" version="1.1" xmlns:xlink="http://www.w3.org/1999/xlink" xmlns:avocode="https://avocode.com/" viewBox="0 0 313 361"><defs><radialGradient id="RadialGradient1018" gradientUnits="userSpaceOnUse" cx="156.6099814128877" cy="180.60998926877983" r="168.4120360660554"><stop stop-opacity="1" stop-color="#1d1817" offset="0"></stop><stop stop-opacity="1" stop-color="#181413" offset="0.1"></stop><stop stop-opacity="1" stop-color="#060505" offset="0.62"></stop><stop stop-opacity="1" stop-color="#000000" offset="1"></stop></radialGradient><radialGradient id="RadialGradient1028" gradientUnits="userSpaceOnUse" cx="150.46704298496252" cy="186.54661835193633" r="344.2984743452073"><stop stop-opacity="1" stop-color="#1d1817" offset="0"></stop><stop stop-opacity="1" stop-color="#181413" offset="0.1"></stop><stop stop-opacity="1" stop-color="#060505" offset="0.62"></stop><stop stop-opacity="1" stop-color="#000000" offset="1"></stop></radialGradient><radialGradient id="RadialGradient1038" gradientUnits="userSpaceOnUse" cx="78.65005576133717" cy="634.6691120100022" r="570.2730977439878"><stop stop-opacity="1" stop-color="#1d1817" offset="0"></stop><stop stop-opacity="1" stop-color="#181413" offset="0.1"></stop><stop stop-opacity="1" stop-color="#060505" offset="0.62"></stop><stop stop-opacity="1" stop-color="#000000" offset="1"></stop></radialGradient><radialGradient id="RadialGradient1055" gradientUnits="userSpaceOnUse" cx="150.82044424474248" cy="186.20500889778123" r="324.4865061092378"><stop stop-opacity="1" stop-color="#ffffff" offset="0.06"></stop><stop stop-opacity="1" stop-color="#fef9eb" offset="0.1"></stop><stop stop-opacity="1" stop-color="#fce9b9" offset="0.18"></stop><stop stop-opacity="1" stop-color="#fad169" offset="0.29"></stop><stop stop-opacity="1" stop-color="#facd5c" offset="0.31"></stop><stop stop-opacity="1" stop-color="#b38e37" offset="0.56"></stop><stop stop-opacity="1" stop-color="#65480f" offset="0.86"></stop><stop stop-opacity="1" stop-color="#472d00" offset="1"></stop></radialGradient><radialGradient id="RadialGradient1069" gradientUnits="userSpaceOnUse" cx="83.13505693286652" cy="608.5411723804473" r="537.4578836631777"><stop stop-opacity="1" stop-color="#ffffff" offset="0.06"></stop><stop stop-opacity="1" stop-color="#fef9eb" offset="0.1"></stop><stop stop-opacity="1" stop-color="#fce9b9" offset="0.18"></stop><stop stop-opacity="1" stop-color="#fad169" offset="0.29"></stop><stop stop-opacity="1" stop-color="#facd5c" offset="0.31"></stop><stop stop-opacity="1" stop-color="#b38e37" offset="0.56"></stop><stop stop-opacity="1" stop-color="#65480f" offset="0.86"></stop><stop stop-opacity="1" stop-color="#472d00" offset="1"></stop></radialGradient><radialGradient id="RadialGradient1088" gradientUnits="userSpaceOnUse" cx="151.66133560746925" cy="185.39714870214448" r="277.6340988540651"><stop stop-opacity="1" stop-color="#ffffff" offset="0.06"></stop><stop stop-opacity="1" stop-color="#fef9eb" offset="0.1"></stop><stop stop-opacity="1" stop-color="#fce9b9" offset="0.18"></stop><stop stop-opacity="1" stop-color="#fad169" offset="0.29"></stop><stop stop-opacity="1" stop-color="#facd5c" offset="0.31"></stop><stop stop-opacity="1" stop-color="#b38e37" offset="0.56"></stop><stop stop-opacity="1" stop-color="#65480f" offset="0.86"></stop><stop stop-opacity="1" stop-color="#472d00" offset="1"></stop></radialGradient><radialGradient id="RadialGradient1102" gradientUnits="userSpaceOnUse" cx="93.74004122078418" cy="546.7524824142456" r="459.8546413850786"><stop stop-opacity="1" stop-color="#ffffff" offset="0.06"></stop><stop stop-opacity="1" stop-color="#fef9eb" offset="0.1"></stop><stop stop-opacity="1" stop-color="#fce9b9" offset="0.18"></stop><stop stop-opacity="1" stop-color="#fad169" offset="0.29"></stop><stop stop-opacity="1" stop-color="#facd5c" offset="0.31"></stop><stop stop-opacity="1" stop-color="#b38e37" offset="0.56"></stop><stop stop-opacity="1" stop-color="#65480f" offset="0.86"></stop><stop stop-opacity="1" stop-color="#472d00" offset="1"></stop></radialGradient><radialGradient id="RadialGradient1116" gradientUnits="userSpaceOnUse" cx="156.5697137159109" cy="180.6095938670635" r="148.22571445941935"><stop stop-opacity="1" stop-color="#1d1817" offset="0"></stop><stop stop-opacity="1" stop-color="#181413" offset="0.1"></stop><stop stop-opacity="1" stop-color="#060505" offset="0.62"></stop><stop stop-opacity="1" stop-color="#000000" offset="1"></stop></radialGradient><radialGradient id="RadialGradient1126" gradientUnits="userSpaceOnUse" cx="59.05996024370188" cy="124.37994173526772" r="29.049323580561804"><stop stop-opacity="1" stop-color="#1d1817" offset="0"></stop><stop stop-opacity="1" stop-color="#181413" offset="0.1"></stop><stop stop-opacity="1" stop-color="#060505" offset="0.62"></stop><stop stop-opacity="1" stop-color="#000000" offset="1"></stop></radialGradient><radialGradient id="RadialGradient1136" gradientUnits="userSpaceOnUse" cx="252.83496507227414" cy="125.21498786002394" r="29.05288966496846"><stop stop-opacity="1" stop-color="#1d1817" offset="0"></stop><stop stop-opacity="1" stop-color="#181413" offset="0.1"></stop><stop stop-opacity="1" stop-color="#060505" offset="0.62"></stop><stop stop-opacity="1" stop-color="#000000" offset="1"></stop></radialGradient><radialGradient id="RadialGradient1148" gradientUnits="userSpaceOnUse" cx="15.85698950767528" cy="25.416457675397396" r="364.75056710243234"><stop stop-opacity="1" stop-color="#ffffff" offset="0.06"></stop><stop stop-opacity="1" stop-color="#fef9eb" offset="0.1"></stop><stop stop-opacity="1" stop-color="#fce9b9" offset="0.18"></stop><stop stop-opacity="1" stop-color="#fad169" offset="0.29"></stop><stop stop-opacity="1" stop-color="#facd5c" offset="0.31"></stop><stop stop-opacity="1" stop-color="#b38e37" offset="0.56"></stop><stop stop-opacity="1" stop-color="#65480f" offset="0.86"></stop><stop stop-opacity="1" stop-color="#472d00" offset="1"></stop></radialGradient><radialGradient id="RadialGradient1162" gradientUnits="userSpaceOnUse" cx="15.811926422119086" cy="25.41149090290071" r="364.82269903183"><stop stop-opacity="1" stop-color="#ffffff" offset="0.06"></stop><stop stop-opacity="1" stop-color="#fef9eb" offset="0.1"></stop><stop stop-opacity="1" stop-color="#fce9b9" offset="0.18"></stop><stop stop-opacity="1" stop-color="#fad169" offset="0.29"></stop><stop stop-opacity="1" stop-color="#facd5c" offset="0.31"></stop><stop stop-opacity="1" stop-color="#b38e37" offset="0.56"></stop><stop stop-opacity="1" stop-color="#65480f" offset="0.86"></stop><stop stop-opacity="1" stop-color="#472d00" offset="1"></stop></radialGradient><radialGradient id="RadialGradient1176" gradientUnits="userSpaceOnUse" cx="15.858602612018785" cy="25.41775315284724" r="364.7668488597868"><stop stop-opacity="1" stop-color="#ffffff" offset="0.06"></stop><stop stop-opacity="1" stop-color="#fef9eb" offset="0.1"></stop><stop stop-opacity="1" stop-color="#fce9b9" offset="0.18"></stop><stop stop-opacity="1" stop-color="#fad169" offset="0.29"></stop><stop stop-opacity="1" stop-color="#facd5c" offset="0.31"></stop><stop stop-opacity="1" stop-color="#b38e37" offset="0.56"></stop><stop stop-opacity="1" stop-color="#65480f" offset="0.86"></stop><stop stop-opacity="1" stop-color="#472d00" offset="1"></stop></radialGradient><radialGradient id="RadialGradient1190" gradientUnits="userSpaceOnUse" cx="15.8433077430725" cy="25.408140221834287" r="364.82667200088497"><stop stop-opacity="1" stop-color="#ffffff" offset="0.06"></stop><stop stop-opacity="1" stop-color="#fef9eb" offset="0.1"></stop><stop stop-opacity="1" stop-color="#fce9b9" offset="0.18"></stop><stop stop-opacity="1" stop-color="#fad169" offset="0.29"></stop><stop stop-opacity="1" stop-color="#facd5c" offset="0.31"></stop><stop stop-opacity="1" stop-color="#b38e37" offset="0.56"></stop><stop stop-opacity="1" stop-color="#65480f" offset="0.86"></stop><stop stop-opacity="1" stop-color="#472d00" offset="1"></stop></radialGradient><radialGradient id="RadialGradient1204" gradientUnits="userSpaceOnUse" cx="15.880244457721574" cy="25.41648474603892" r="364.76563344955446"><stop stop-opacity="1" stop-color="#ffffff" offset="0.06"></stop><stop stop-opacity="1" stop-color="#fef9eb" offset="0.1"></stop><stop stop-opacity="1" stop-color="#fce9b9" offset="0.18"></stop><stop stop-opacity="1" stop-color="#fad169" offset="0.29"></stop><stop stop-opacity="1" stop-color="#facd5c" offset="0.31"></stop><stop stop-opacity="1" stop-color="#b38e37" offset="0.56"></stop><stop stop-opacity="1" stop-color="#65480f" offset="0.86"></stop><stop stop-opacity="1" stop-color="#472d00" offset="1"></stop></radialGradient><radialGradient id="RadialGradient1218" gradientUnits="userSpaceOnUse" cx="15.887092771529979" cy="25.413072699308373" r="364.79959304809574"><stop stop-opacity="1" stop-color="#ffffff" offset="0.06"></stop><stop stop-opacity="1" stop-color="#fef9eb" offset="0.1"></stop><stop stop-opacity="1" stop-color="#fce9b9" offset="0.18"></stop><stop stop-opacity="1" stop-color="#fad169" offset="0.29"></stop><stop stop-opacity="1" stop-color="#facd5c" offset="0.31"></stop><stop stop-opacity="1" stop-color="#b38e37" offset="0.56"></stop><stop stop-opacity="1" stop-color="#65480f" offset="0.86"></stop><stop stop-opacity="1" stop-color="#472d00" offset="1"></stop></radialGradient><radialGradient id="RadialGradient1232" gradientUnits="userSpaceOnUse" cx="15.864228067398017" cy="25.419217486530556" r="364.7716711235047"><stop stop-opacity="1" stop-color="#ffffff" offset="0.06"></stop><stop stop-opacity="1" stop-color="#fef9eb" offset="0.1"></stop><stop stop-opacity="1" stop-color="#fce9b9" offset="0.18"></stop><stop stop-opacity="1" stop-color="#fad169" offset="0.29"></stop><stop stop-opacity="1" stop-color="#facd5c" offset="0.31"></stop><stop stop-opacity="1" stop-color="#b38e37" offset="0.56"></stop><stop stop-opacity="1" stop-color="#65480f" offset="0.86"></stop><stop stop-opacity="1" stop-color="#472d00" offset="1"></stop></radialGradient><radialGradient id="RadialGradient1246" gradientUnits="userSpaceOnUse" cx="15.855832132101114" cy="25.42149280548108" r="364.75106658935545"><stop stop-opacity="1" stop-color="#ffffff" offset="0.06"></stop><stop stop-opacity="1" stop-color="#fef9eb" offset="0.1"></stop><stop stop-opacity="1" stop-color="#fce9b9" offset="0.18"></stop><stop stop-opacity="1" stop-color="#fad169" offset="0.29"></stop><stop stop-opacity="1" stop-color="#facd5c" offset="0.31"></stop><stop stop-opacity="1" stop-color="#b38e37" offset="0.56"></stop><stop stop-opacity="1" stop-color="#65480f" offset="0.86"></stop><stop stop-opacity="1" stop-color="#472d00" offset="1"></stop></radialGradient><radialGradient id="RadialGradient1260" gradientUnits="userSpaceOnUse" cx="15.843126602172788" cy="25.425131983756955" r="364.7413646507264"><stop stop-opacity="1" stop-color="#ffffff" offset="0.06"></stop><stop stop-opacity="1" stop-color="#fef9eb" offset="0.1"></stop><stop stop-opacity="1" stop-color="#fce9b9" offset="0.18"></stop><stop stop-opacity="1" stop-color="#fad169" offset="0.29"></stop><stop stop-opacity="1" stop-color="#facd5c" offset="0.31"></stop><stop stop-opacity="1" stop-color="#b38e37" offset="0.56"></stop><stop stop-opacity="1" stop-color="#65480f" offset="0.86"></stop><stop stop-opacity="1" stop-color="#472d00" offset="1"></stop></radialGradient><radialGradient id="RadialGradient1274" gradientUnits="userSpaceOnUse" cx="15.888511257171558" cy="25.425783386230364" r="364.75181823730475"><stop stop-opacity="1" stop-color="#ffffff" offset="0.06"></stop><stop stop-opacity="1" stop-color="#fef9eb" offset="0.1"></stop><stop stop-opacity="1" stop-color="#fce9b9" offset="0.18"></stop><stop stop-opacity="1" stop-color="#fad169" offset="0.29"></stop><stop stop-opacity="1" stop-color="#facd5c" offset="0.31"></stop><stop stop-opacity="1" stop-color="#b38e37" offset="0.56"></stop><stop stop-opacity="1" stop-color="#65480f" offset="0.86"></stop><stop stop-opacity="1" stop-color="#472d00" offset="1"></stop></radialGradient><radialGradient id="RadialGradient1288" gradientUnits="userSpaceOnUse" cx="15.940218067169099" cy="25.380352778434712" r="364.9267648124695"><stop stop-opacity="1" stop-color="#ffffff" offset="0.06"></stop><stop stop-opacity="1" stop-color="#fef9eb" offset="0.1"></stop><stop stop-opacity="1" stop-color="#fce9b9" offset="0.18"></stop><stop stop-opacity="1" stop-color="#fad169" offset="0.29"></stop><stop stop-opacity="1" stop-color="#facd5c" offset="0.31"></stop><stop stop-opacity="1" stop-color="#b38e37" offset="0.56"></stop><stop stop-opacity="1" stop-color="#65480f" offset="0.86"></stop><stop stop-opacity="1" stop-color="#472d00" offset="1"></stop></radialGradient><radialGradient id="RadialGradient1302" gradientUnits="userSpaceOnUse" cx="15.883741407394382" cy="25.419715937972" r="364.75641767025"><stop stop-opacity="1" stop-color="#ffffff" offset="0.06"></stop><stop stop-opacity="1" stop-color="#fef9eb" offset="0.1"></stop><stop stop-opacity="1" stop-color="#fce9b9" offset="0.18"></stop><stop stop-opacity="1" stop-color="#fad169" offset="0.29"></stop><stop stop-opacity="1" stop-color="#facd5c" offset="0.31"></stop><stop stop-opacity="1" stop-color="#b38e37" offset="0.56"></stop><stop stop-opacity="1" stop-color="#65480f" offset="0.86"></stop><stop stop-opacity="1" stop-color="#472d00" offset="1"></stop></radialGradient><radialGradient id="RadialGradient1316" gradientUnits="userSpaceOnUse" cx="15.800117645263526" cy="25.407275358438483" r="364.81101017475135"><stop stop-opacity="1" stop-color="#ffffff" offset="0.06"></stop><stop stop-opacity="1" stop-color="#fef9eb" offset="0.1"></stop><stop stop-opacity="1" stop-color="#fce9b9" offset="0.18"></stop><stop stop-opacity="1" stop-color="#fad169" offset="0.29"></stop><stop stop-opacity="1" stop-color="#facd5c" offset="0.31"></stop><stop stop-opacity="1" stop-color="#b38e37" offset="0.56"></stop><stop stop-opacity="1" stop-color="#65480f" offset="0.86"></stop><stop stop-opacity="1" stop-color="#472d00" offset="1"></stop></radialGradient><radialGradient id="RadialGradient1330" gradientUnits="userSpaceOnUse" cx="15.965565233230564" cy="25.431238956451352" r="364.7251697158815"><stop stop-opacity="1" stop-color="#ffffff" offset="0.06"></stop><stop stop-opacity="1" stop-color="#fef9eb" offset="0.1"></stop><stop stop-opacity="1" stop-color="#fce9b9" offset="0.18"></stop><stop stop-opacity="1" stop-color="#fad169" offset="0.29"></stop><stop stop-opacity="1" stop-color="#facd5c" offset="0.31"></stop><stop stop-opacity="1" stop-color="#b38e37" offset="0.56"></stop><stop stop-opacity="1" stop-color="#65480f" offset="0.86"></stop><stop stop-opacity="1" stop-color="#472d00" offset="1"></stop></radialGradient><radialGradient id="RadialGradient1344" gradientUnits="userSpaceOnUse" cx="15.859087498188046" cy="25.327947845458993" r="364.9321708679199"><stop stop-opacity="1" stop-color="#ffffff" offset="0.06"></stop><stop stop-opacity="1" stop-color="#fef9eb" offset="0.1"></stop><stop stop-opacity="1" stop-color="#fce9b9" offset="0.18"></stop><stop stop-opacity="1" stop-color="#fad169" offset="0.29"></stop><stop stop-opacity="1" stop-color="#facd5c" offset="0.31"></stop><stop stop-opacity="1" stop-color="#b38e37" offset="0.56"></stop><stop stop-opacity="1" stop-color="#65480f" offset="0.86"></stop><stop stop-opacity="1" stop-color="#472d00" offset="1"></stop></radialGradient><radialGradient id="RadialGradient1358" gradientUnits="userSpaceOnUse" cx="15.886677870750418" cy="25.41652382373809" r="364.77875439643867"><stop stop-opacity="1" stop-color="#ffffff" offset="0.06"></stop><stop stop-opacity="1" stop-color="#fef9eb" offset="0.1"></stop><stop stop-opacity="1" stop-color="#fce9b9" offset="0.18"></stop><stop stop-opacity="1" stop-color="#fad169" offset="0.29"></stop><stop stop-opacity="1" stop-color="#facd5c" offset="0.31"></stop><stop stop-opacity="1" stop-color="#b38e37" offset="0.56"></stop><stop stop-opacity="1" stop-color="#65480f" offset="0.86"></stop><stop stop-opacity="1" stop-color="#472d00" offset="1"></stop></radialGradient><radialGradient id="RadialGradient1372" gradientUnits="userSpaceOnUse" cx="15.873715701103265" cy="25.410151784420123" r="364.7884233188629"><stop stop-opacity="1" stop-color="#ffffff" offset="0.06"></stop><stop stop-opacity="1" stop-color="#fef9eb" offset="0.1"></stop><stop stop-opacity="1" stop-color="#fce9b9" offset="0.18"></stop><stop stop-opacity="1" stop-color="#fad169" offset="0.29"></stop><stop stop-opacity="1" stop-color="#facd5c" offset="0.31"></stop><stop stop-opacity="1" stop-color="#b38e37" offset="0.56"></stop><stop stop-opacity="1" stop-color="#65480f" offset="0.86"></stop><stop stop-opacity="1" stop-color="#472d00" offset="1"></stop></radialGradient><radialGradient id="RadialGradient1386" gradientUnits="userSpaceOnUse" cx="15.867609672546223" cy="25.401313626766182" r="364.8021026945115"><stop stop-opacity="1" stop-color="#ffffff" offset="0.06"></stop><stop stop-opacity="1" stop-color="#fef9eb" offset="0.1"></stop><stop stop-opacity="1" stop-color="#fce9b9" offset="0.18"></stop><stop stop-opacity="1" stop-color="#fad169" offset="0.29"></stop><stop stop-opacity="1" stop-color="#facd5c" offset="0.31"></stop><stop stop-opacity="1" stop-color="#b38e37" offset="0.56"></stop><stop stop-opacity="1" stop-color="#65480f" offset="0.86"></stop><stop stop-opacity="1" stop-color="#472d00" offset="1"></stop></radialGradient><radialGradient id="RadialGradient1400" gradientUnits="userSpaceOnUse" cx="15.870486074685914" cy="25.407500903606433" r="364.79109379291526"><stop stop-opacity="1" stop-color="#ffffff" offset="0.06"></stop><stop stop-opacity="1" stop-color="#fef9eb" offset="0.1"></stop><stop stop-opacity="1" stop-color="#fce9b9" offset="0.18"></stop><stop stop-opacity="1" stop-color="#fad169" offset="0.29"></stop><stop stop-opacity="1" stop-color="#facd5c" offset="0.31"></stop><stop stop-opacity="1" stop-color="#b38e37" offset="0.56"></stop><stop stop-opacity="1" stop-color="#65480f" offset="0.86"></stop><stop stop-opacity="1" stop-color="#472d00" offset="1"></stop></radialGradient><radialGradient id="RadialGradient1414" gradientUnits="userSpaceOnUse" cx="15.91417229652393" cy="25.411178035736157" r="364.7787137508392"><stop stop-opacity="1" stop-color="#ffffff" offset="0.06"></stop><stop stop-opacity="1" stop-color="#fef9eb" offset="0.1"></stop><stop stop-opacity="1" stop-color="#fce9b9" offset="0.18"></stop><stop stop-opacity="1" stop-color="#fad169" offset="0.29"></stop><stop stop-opacity="1" stop-color="#facd5c" offset="0.31"></stop><stop stop-opacity="1" stop-color="#b38e37" offset="0.56"></stop><stop stop-opacity="1" stop-color="#65480f" offset="0.86"></stop><stop stop-opacity="1" stop-color="#472d00" offset="1"></stop></radialGradient><radialGradient id="RadialGradient1428" gradientUnits="userSpaceOnUse" cx="15.863043828010632" cy="25.468083343505896" r="364.6725845336914"><stop stop-opacity="1" stop-color="#ffffff" offset="0.06"></stop><stop stop-opacity="1" stop-color="#fef9eb" offset="0.1"></stop><stop stop-opacity="1" stop-color="#fce9b9" offset="0.18"></stop><stop stop-opacity="1" stop-color="#fad169" offset="0.29"></stop><stop stop-opacity="1" stop-color="#facd5c" offset="0.31"></stop><stop stop-opacity="1" stop-color="#b38e37" offset="0.56"></stop><stop stop-opacity="1" stop-color="#65480f" offset="0.86"></stop><stop stop-opacity="1" stop-color="#472d00" offset="1"></stop></radialGradient><radialGradient id="RadialGradient1442" gradientUnits="userSpaceOnUse" cx="15.891973032951455" cy="25.41326540946966" r="364.77915501594543"><stop stop-opacity="1" stop-color="#ffffff" offset="0.06"></stop><stop stop-opacity="1" stop-color="#fef9eb" offset="0.1"></stop><stop stop-opacity="1" stop-color="#fce9b9" offset="0.18"></stop><stop stop-opacity="1" stop-color="#fad169" offset="0.29"></stop><stop stop-opacity="1" stop-color="#facd5c" offset="0.31"></stop><stop stop-opacity="1" stop-color="#b38e37" offset="0.56"></stop><stop stop-opacity="1" stop-color="#65480f" offset="0.86"></stop><stop stop-opacity="1" stop-color="#472d00" offset="1"></stop></radialGradient><radialGradient id="RadialGradient1456" gradientUnits="userSpaceOnUse" cx="15.86489100158201" cy="25.44727892637252" r="364.7128955554963"><stop stop-opacity="1" stop-color="#ffffff" offset="0.06"></stop><stop stop-opacity="1" stop-color="#fef9eb" offset="0.1"></stop><stop stop-opacity="1" stop-color="#fce9b9" offset="0.18"></stop><stop stop-opacity="1" stop-color="#fad169" offset="0.29"></stop><stop stop-opacity="1" stop-color="#facd5c" offset="0.31"></stop><stop stop-opacity="1" stop-color="#b38e37" offset="0.56"></stop><stop stop-opacity="1" stop-color="#65480f" offset="0.86"></stop><stop stop-opacity="1" stop-color="#472d00" offset="1"></stop></radialGradient><radialGradient id="RadialGradient1470" gradientUnits="userSpaceOnUse" cx="15.874533522129013" cy="25.412671279907272" r="364.78021373748766"><stop stop-opacity="1" stop-color="#ffffff" offset="0.06"></stop><stop stop-opacity="1" stop-color="#fef9eb" offset="0.1"></stop><stop stop-opacity="1" stop-color="#fce9b9" offset="0.18"></stop><stop stop-opacity="1" stop-color="#fad169" offset="0.29"></stop><stop stop-opacity="1" stop-color="#facd5c" offset="0.31"></stop><stop stop-opacity="1" stop-color="#b38e37" offset="0.56"></stop><stop stop-opacity="1" stop-color="#65480f" offset="0.86"></stop><stop stop-opacity="1" stop-color="#472d00" offset="1"></stop></radialGradient><radialGradient id="RadialGradient1484" gradientUnits="userSpaceOnUse" cx="15.855820209980038" cy="25.421474955081976" r="364.7617638587951"><stop stop-opacity="1" stop-color="#ffffff" offset="0.06"></stop><stop stop-opacity="1" stop-color="#fef9eb" offset="0.1"></stop><stop stop-opacity="1" stop-color="#fce9b9" offset="0.18"></stop><stop stop-opacity="1" stop-color="#fad169" offset="0.29"></stop><stop stop-opacity="1" stop-color="#facd5c" offset="0.31"></stop><stop stop-opacity="1" stop-color="#b38e37" offset="0.56"></stop><stop stop-opacity="1" stop-color="#65480f" offset="0.86"></stop><stop stop-opacity="1" stop-color="#472d00" offset="1"></stop></radialGradient><radialGradient id="RadialGradient1498" gradientUnits="userSpaceOnUse" cx="15.883158025741523" cy="25.422922096252478" r="364.7644402313233"><stop stop-opacity="1" stop-color="#ffffff" offset="0.06"></stop><stop stop-opacity="1" stop-color="#fef9eb" offset="0.1"></stop><stop stop-opacity="1" stop-color="#fce9b9" offset="0.18"></stop><stop stop-opacity="1" stop-color="#fad169" offset="0.29"></stop><stop stop-opacity="1" stop-color="#facd5c" offset="0.31"></stop><stop stop-opacity="1" stop-color="#b38e37" offset="0.56"></stop><stop stop-opacity="1" stop-color="#65480f" offset="0.86"></stop><stop stop-opacity="1" stop-color="#472d00" offset="1"></stop></radialGradient><radialGradient id="RadialGradient1512" gradientUnits="userSpaceOnUse" cx="15.870403287410682" cy="25.440077896118055" r="364.7286433410645"><stop stop-opacity="1" stop-color="#ffffff" offset="0.06"></stop><stop stop-opacity="1" stop-color="#fef9eb" offset="0.1"></stop><stop stop-opacity="1" stop-color="#fce9b9" offset="0.18"></stop><stop stop-opacity="1" stop-color="#fad169" offset="0.29"></stop><stop stop-opacity="1" stop-color="#facd5c" offset="0.31"></stop><stop stop-opacity="1" stop-color="#b38e37" offset="0.56"></stop><stop stop-opacity="1" stop-color="#65480f" offset="0.86"></stop><stop stop-opacity="1" stop-color="#472d00" offset="1"></stop></radialGradient><radialGradient id="RadialGradient1526" gradientUnits="userSpaceOnUse" cx="159.4798638510706" cy="169.78033320665372" r="130.74929125070548"><stop stop-opacity="1" stop-color="#1d1817" offset="0"></stop><stop stop-opacity="1" stop-color="#181413" offset="0.1"></stop><stop stop-opacity="1" stop-color="#060505" offset="0.62"></stop><stop stop-opacity="1" stop-color="#000000" offset="1"></stop></radialGradient></defs><desc>Generated with Avocode.</desc><g><g><title>Group 74</title><g><title>Group 71</title><g><title>Path 48</title><path d="M312.53418,270.63208v0v-180.04199v0l-155.92102,-90.021v0l-155.9209,90.021v0v180.04199v0l155.9209,90.021v0z" fill="url(#RadialGradient1018)"></path></g><g><title>Path 49</title><path d="M156.61316,0.56909v0l-155.9209,90.021v0l155.9209,90.021v0l155.92102,-90.021v0z" fill="url(#RadialGradient1028)"></path></g><g><title>Path 50</title><path d="M156.61316,180.61108v0v180.04199v0l155.92102,-90.021v0v-180.04199v0z" fill="url(#RadialGradient1038)"></path></g></g><g><title>Group 72</title><g><title>Path 51</title><path d="M303.56372,265.453v0v-169.68384v0l-146.95056,-84.84192v0l-146.95044,84.84192v0v169.68384v0l146.95044,84.84192v0z" fill="#472d00" fill-opacity="1"></path></g><g><title>Path 52</title><path d="M156.61316,10.92725v0l-146.95044,84.84192v0l146.95044,84.84192v0l146.95056,-84.84192v0z" fill="url(#RadialGradient1055)"></path></g><g><title>Path 53</title><path d="M156.61316,180.61108v0v169.68384v0l146.95056,-84.84192v0v-169.68384v0z" fill="url(#RadialGradient1069)"></path></g></g><g><title>Path 54</title><path d="M282.34607,253.203v0v-145.18384v0l-125.73291,-72.59192v0l-125.73291,72.59192v0v145.18384v0l125.73291,72.59192v0z" fill="#472d00" fill-opacity="1"></path></g><g><title>Path 55</title><path d="M156.61316,35.42725v0l-125.73291,72.59192v0l125.73291,72.59192v0l125.73291,-72.59192v0z" fill="url(#RadialGradient1088)"></path></g><g><title>Path 56</title><path d="M156.61316,180.61108v0v145.18384v0l125.73291,-72.59192v0v-145.18384v0z" fill="url(#RadialGradient1102)"></path></g><g><title>Path 57</title><path d="M282.30298,253.203l-125.73303,72.59204l-125.73291,-72.59204v-145.18396l125.73291,-72.59204l125.73303,72.59204zM156.56995,22.15198l-137.22998,79.229v158.45996l137.22998,79.2301l137.2301,-79.2301v-158.45996z" fill="url(#RadialGradient1116)"></path></g><g transform="rotate(-60.92584232222385 59.059999999999945 124.38)"><title>Rectangle 28</title><path d="M53.3089,165.1115v0v-81.46272v0h11.49722v0v81.46272v0z" fill="url(#RadialGradient1126)"></path></g><g transform="rotate(-119.07415767777614 252.83499999999992 125.21500000000003)"><title>Rectangle 29</title><path d="M247.08582,165.94594v0v-81.46272v0h11.49722v0v81.46272v0z" fill="url(#RadialGradient1136)"></path></g><g><title>Group 73</title><g><title>Path 58</title><path d="M111.22705,40.95898v0l5.37695,15.32202v0h4.40198v0l-8.34802,-24.73199c-2.20093,-0.15002 -3.94092,-1.97803 -3.94092,-4.21704c0,-2.33795 1.89392,-4.23199 4.23193,-4.23199c2.33704,0 4.23108,1.89404 4.23108,4.23199c0,1.26801 -0.56006,2.40302 -1.44409,3.17804l1.62805,4.82397v0h6.29602c0.68896,0 1.30396,0.43604 1.53198,1.086l2.61694,7.45703c0.80505,-2.31104 1.60803,-4.62299 2.41309,-6.935c0.22192,-0.63702 0.28296,-1.22302 0.0509,-1.88202c-1.46289,-4.159 -2.93994,-8.31299 -4.32092,-12.49902c-0.75903,-2.30298 -2.11499,-4.22095 -3.92603,-5.67798c-8.026,-6.45898 -18.323,-2.78998 -21.67505,5.06903c-0.65393,1.53296 -1.12793,3.08398 -1.16492,4.71997c-0.04309,1.90002 0.32397,3.758 0.94495,5.56903c0.87305,2.54297 1.73804,5.08899 2.60803,7.63196h6.95496c0.69006,0 1.30408,0.43604 1.53308,1.086z" fill="url(#RadialGradient1148)"></path></g><g><title>Path 59</title><path d="M118.45996,38.58197v0l5.51099,16.32806c0.70801,-2.03601 1.41699,-4.07104 2.125,-6.10706l-3.58691,-10.22101v0z" fill="url(#RadialGradient1162)"></path></g><g><title>Path 60</title><path d="M153.64197,103.84998c-0.14197,0.328 -0.20996,0.46008 -0.25793,0.599c-1.66504,4.80798 -3.31604,9.62097 -5.00903,14.41797c-0.20801,0.59009 -0.12805,0.88904 0.35498,1.29211c11.14001,9.31494 11.32202,26.30994 0.36401,35.81995c-1.802,1.56396 -3.76794,2.93896 -5.66602,4.38904c-1.95801,1.49597 -3.92603,2.97791 -6.02197,4.56702c0.37903,0.14197 0.58801,0.22888 0.80298,0.29993c16.89001,5.59998 28.21899,16.81897 33.86401,33.69104c0.81604,2.43896 1.23096,5.03101 1.62598,7.58301c0.12903,0.83093 -0.24292,1.84302 -0.65503,2.63196c-0.703,1.34705 -2.8269,1.89099 -4.198,1.521c-1.78101,-0.48193 -2.87097,-1.60803 -3.19995,-3.50098c-1.38696,-7.96997 -4.60205,-14.88501 -9.61902,-20.73401h-12.35901v0l-20.53601,20.53601v0h6.88306c0.42993,0 0.84302,0.17102 1.14795,0.47595l12.77502,12.77502v0h9.68506c16.98694,0 30.80591,-13.81995 30.80591,-30.80603v-17.40894c-0.59192,-0.052 -1.18799,-0.11902 -1.79102,-0.21606c-10.11389,-1.62292 -17.95996,-10.45496 -18.25989,-20.66296c-0.13403,-4.54395 -0.07202,-9.09497 -0.00403,-13.64099c0.02393,-1.59497 -0.28101,-3.08997 -0.78198,-4.56506c-3.15698,-9.29199 -6.32703,-18.57996 -9.49609,-27.86792c-0.11792,-0.34705 -0.25989,-0.68701 -0.45398,-1.19604z" fill="url(#RadialGradient1176)"></path></g><g><title>Path 61</title><path d="M156.43103,70.67102v0h-4.77307v0l-14.46399,44.31104c0.91504,0.14294 1.83606,0.32996 2.76306,0.57092c0.17493,0.04602 0.349,0.09998 0.526,0.13696c0.07202,0.01501 0.15198,-0.00598 0.30798,-0.01489c0.63,-1.81104 1.27002,-3.64209 1.90295,-5.47607c1.44006,-4.16992 2.86401,-8.34595 4.31897,-12.51196c0.81104,-2.31897 1.70203,-4.60999 2.50305,-6.93201c2.30896,-6.69299 4.61096,-13.38904 6.91504,-20.08398z" fill="url(#RadialGradient1190)"></path></g><g><title>Path 62</title><path d="M121.10596,118.36206c0.09302,-0.06006 0.18408,-0.12207 0.2771,-0.18103c1.5199,-0.95801 3.0769,-1.70605 4.66589,-2.26599l25.93005,-79.09607v0h-4.14099v0z" fill="url(#RadialGradient1204)"></path></g><g><title>Path 63</title><path d="M115.86304,78.13904c0.33997,-0.94604 0.61401,-1.68701 0.87292,-2.43298c1.83203,-5.26501 3.66504,-10.53003 5.49609,-15.79504l-0.12903,-0.38196v0h-6.65002c-0.69006,0 -1.30396,-0.43506 -1.53198,-1.08606l-5.37805,-15.32202v0h-4.69495c1.77002,5.18103 3.54102,10.36206 5.30994,15.54297c2.11304,6.19006 4.22705,12.3811 6.34302,18.57007c0.07898,0.23401 0.18298,0.45996 0.36206,0.90503z" fill="url(#RadialGradient1218)"></path></g><g><title>Path 64</title><path d="M112.53503,124.67798c1.38196,-1.03003 2.74097,-2.099 4.11401,-3.14502l28.46899,-86.84393c0.21899,-0.66705 0.84094,-1.11804 1.54297,-1.11804h6.38293v0l0.995,-3.03497c-0.901,-0.776 -1.4729,-1.92303 -1.4729,-3.20404c0,-2.33795 1.89502,-4.23199 4.23193,-4.23199c2.33704,0 4.23206,1.89404 4.23206,4.23199c0,2.22601 -1.72107,4.04706 -3.90503,4.21503l-27.34595,83.41797c1.34692,-0.21899 2.71399,-0.31799 4.0979,-0.28699l15.05908,-46.13501c0.21802,-0.66797 0.84094,-1.12 1.54395,-1.12h7.07007c2.07495,-6.03198 4.151,-12.06299 6.229,-18.09399c1.96997,-5.71796 3.93994,-11.435 5.94299,-17.14197c2.91797,-8.315 -2.01807,-16.867 -10.65308,-18.41302c-6.57202,-1.17596 -13.03699,2.71802 -15.34692,9.31403c-3.90405,11.146 -7.76807,22.30493 -11.646,33.46094c-4.27808,12.30603 -8.55103,24.61304 -12.828,36.92004c-4.01306,11.54602 -8.0271,23.09204 -12.03906,34.63806c-0.05701,0.16492 -0.09802,0.33594 -0.146,0.50391l0.14307,0.09705c1.776,-1.34399 3.54297,-2.69897 5.32898,-4.03003z" fill="url(#RadialGradient1232)"></path></g><g><title>Path 65</title><path d="M117.31006,155.94495c0.2749,-0.1969 0.60596,-0.30298 0.94495,-0.30298h17.85303c2.33801,-1.75 4.66992,-3.50891 6.95203,-5.32996c4.88196,-3.89404 6.82898,-9.08301 5.58191,-15.17102c-2.28992,-11.18494 -15.28699,-15.93103 -24.38501,-9.03699c-6.25293,4.73694 -12.52795,9.44397 -18.75195,14.21899c-3.61499,2.77295 -7.52002,5.22595 -10.45105,8.79895c-0.495,0.60303 -0.98901,1.21008 -1.479,1.81909h19.05408v0l16.85193,-12.05603c-0.03796,-0.22705 -0.06201,-0.45801 -0.06201,-0.69604c0,-2.33691 1.89404,-4.23193 4.23108,-4.23193c2.33801,0 4.23193,1.89502 4.23193,4.23193c0,2.33704 -1.89392,4.23206 -4.23193,4.23206c-0.91003,0 -1.75,-0.29004 -2.44104,-0.77905l-17.11304,12.24402c-0.276,0.19702 -0.60693,0.30298 -0.94495,0.30298h-22.05505c-0.37695,0.52905 -0.7439,1.06299 -1.09497,1.60803c-0.72095,1.12195 -1.37195,2.297 -1.97693,3.49695h24.60498v0z" fill="url(#RadialGradient1246)"></path></g><g><title>Path 66</title><path d="M215.82996,125.66199c0.30505,0.30396 0.47607,0.71704 0.47607,1.14807v23.99292v0h4.30994v0v-26.44299v0l-12.05103,-12.05103c-0.19995,0.96399 -0.30396,1.97302 -0.297,3.01904c0.00708,0.92603 0.00403,1.85205 0.00708,2.77795z" fill="url(#RadialGradient1260)"></path></g><g><title>Path 67</title><path d="M187.677,172.05505v0v17.35291c0,13.59509 -8.01099,25.3501 -19.55701,30.80603h2.53906c16.98694,0 30.80591,-13.81995 30.80591,-30.80603v-18.92493c-0.40198,-1.08301 -0.73792,-2.21301 -1.00391,-3.39307c-0.12012,0.01807 -0.18005,0.01001 -0.21802,0.03601c-0.12903,0.08704 -0.2511,0.18506 -0.37402,0.28003c-3.73206,2.84998 -7.79907,4.40601 -12.19202,4.64905z" fill="url(#RadialGradient1274)"></path></g><g><title>Path 68</title><path d="M226.34094,101.96704c-1.245,-0.422 -2.55798,-0.66699 -3.90491,-0.6991c-5.27698,-0.12695 -10.27905,2.88501 -12.68103,7.63708l4.82397,4.82397v0z" fill="url(#RadialGradient1288)"></path></g><g><title>Path 69</title><path d="M172.55896,150.09595c-0.01196,10.42004 11.04004,17.05103 20.2511,12.15503c2.93396,-1.55994 4.89795,-3.93298 6.26392,-6.92993c0.76807,-1.68701 0.98401,-3.427 1.00403,-5.21301c0.04102,-3.70605 0.01697,-7.41309 0.01697,-11.12c0,-6.13 -0.00098,-12.26099 -0.00098,-18.39099l-3.57703,3.5769v0v5.2771c0,0.43091 -0.17102,0.84399 -0.47595,1.14795l-8.36401,8.36401v0v7.25696c1.53101,0.63708 2.60803,2.146 2.60803,3.90808c0,2.33691 -1.89502,4.23193 -4.23206,4.23193c-2.33704,0 -4.23193,-1.89502 -4.23193,-4.23193c0,-1.76208 1.0769,-3.271 2.60791,-3.90808v-26.94995c0,-0.43103 0.17102,-0.84399 0.47607,-1.14807l15.18799,-15.18896c0,-0.05994 0,-0.12097 0,-0.18103c-0.00305,-6.229 -3.48901,-11.31689 -9.20398,-13.39392c-2.9231,-1.06299 -5.92102,-1.10803 -8.86902,-0.17798c-0.48804,0.15393 -0.95398,0.34192 -1.40906,0.54492v43.87305c0,0.43103 -0.17102,0.84399 -0.47595,1.14795l-7.57495,7.57507c-0.0011,2.59192 0.00195,5.18298 -0.0011,7.7749z" fill="url(#RadialGradient1302)"></path></g><g><title>Path 70</title><path d="M172.56006,137.72803v0l4.802,-4.80298v0v-41.12305c-0.85303,0.75098 -1.62207,1.61694 -2.30103,2.59802c-1.66602,2.41003 -2.51501,5.05896 -2.50708,8.005c0.021,7.948 0.00708,15.89697 0.00708,23.84497c0,3.82605 -0.00208,7.65198 -0.00098,11.47803z" fill="url(#RadialGradient1316)"></path></g><g><title>Path 71</title><path d="M187.677,134.37v0l5.59204,-5.59204v0v-5.276c0,-0.43091 0.1709,-0.84399 0.47595,-1.14893l6.349,-6.349c0,-2.82605 0,-5.65198 0,-8.47803l-12.41699,12.41699v0z" fill="url(#RadialGradient1330)"></path></g><g><title>Path 72</title><path d="M134.21704,237.48828v0h19.88293v0v-6.99707v0h-28.6886v0z" fill="url(#RadialGradient1344)"></path></g><g><title>Path 73</title><path d="M198.18506,279.26099c0,-3.31799 0.00098,-6.63599 0.00195,-9.95398h-21.20801c-0.43103,0 -0.84399,-0.17102 -1.14795,-0.47595l-8.5321,-8.5321v0v15.00305v0l28.51404,28.20703v0l2.38,-1.79199c-0.01294,-4.38708 -0.00793,-18.16003 -0.00793,-22.45605z" fill="url(#RadialGradient1358)"></path></g><g><title>Path 74</title><path d="M229.96997,183.39099c-1.89099,0.65002 -3.76599,1.07996 -5.62195,1.28601v11.76001c0,18.77795 -15.27698,34.05396 -34.05408,34.05396h-22.995v0v25.21509v0l10.35303,10.35291v0h20.53503c0.00098,-3.78394 0.00098,-7.56897 0.00195,-11.35291v-0.90601c-0.39001,0.10999 -0.66199,0.18091 -0.93091,0.26392c-5.64502,1.755 -11.4231,2.64209 -17.33508,2.66199c-1.23303,0.00403 -2.30701,-0.396 -3.13196,-1.31897c-1.16907,-1.30701 -1.41907,-2.828 -0.74207,-4.42297c0.67004,-1.57996 1.95508,-2.36707 3.66406,-2.46301c2.02197,-0.11304 4.05896,-0.10999 6.06299,-0.36194c11.50598,-1.45007 21.42297,-6.24011 29.58899,-14.479c9.08801,-9.16711 13.99902,-20.26111 14.58203,-33.15601c0.25098,-5.55005 0.07202,-11.11902 0.08496,-16.67908c0,-0.12292 -0.03296,-0.24597 -0.06201,-0.45398z" fill="url(#RadialGradient1372)"></path></g><g><title>Path 75</title><path d="M164.05103,275.97498v0v-45.48401v0h-6.703v0v95.30408v0l35.07996,-20.69299v0l-27.901,-27.979c-0.30493,-0.30408 -0.47595,-0.71704 -0.47595,-1.14807z" fill="url(#RadialGradient1386)"></path></g><g><title>Path 76</title><path d="M132.64001,240.38403v0l-12.45007,-9.89307v0h-25.38196c2.55798,3.01404 5.51904,5.77808 8.89099,8.28308c8.66602,6.43994 18.49207,9.61597 29.297,9.75293c0.63708,0.00806 1.31201,0.08899 1.90198,0.31396c1.83508,0.70007 2.84705,2.61609 2.48108,4.5271c-0.38306,2.00696 -1.99805,3.35498 -4.09607,3.354c-4.90601,-0.00403 -9.74097,-0.604 -14.49194,-1.84106c-0.96802,-0.25293 -1.94006,-0.53296 -2.93506,-0.81702l14.28906,14.28809v0h16.31299c0.89697,0 1.62402,0.72693 1.62402,1.6239v50.65906v0l6.01794,3.78296v0v-83.68201v0h-20.44995c-0.36707,0 -0.72302,-0.1239 -1.01001,-0.35193z" fill="url(#RadialGradient1400)"></path></g><g><title>Path 77</title><path d="M235.80396,114.67297c-0.01892,-4.61292 -2.62195,-8.77502 -6.37695,-11.19897l-12.552,12.552v0l6.51404,6.51294c0.30396,0.30505 0.47498,0.71802 0.47498,1.14807v35.33398c1.44995,0.67102 2.45801,2.13501 2.45801,3.83801c0,2.33704 -1.89502,4.23096 -4.23206,4.23096c-2.33691,0 -4.23193,-1.89392 -4.23193,-4.23096c0,-1.81799 1.14893,-3.36401 2.75793,-3.96301v-4.84497v0h-5.93396c-0.89697,0 -1.62402,-0.72705 -1.62402,-1.62402v-24.94397v0l-4.77295,-4.77405c-0.00305,2.78796 -0.01001,5.57605 -0.01001,8.36401h0.01501c0,5.61304 0.00098,11.22498 0,16.83704c-0.0011,3.55396 -0.02405,7.10791 0,10.66101c0.01392,2.09595 -0.07898,4.21497 0.18591,6.28394c0.88806,6.92297 7.41406,12.23303 14.24902,11.73706c7.52002,-0.54504 13.14001,-6.46204 13.08105,-13.75598c-0.01904,-2.32605 -0.02002,-4.6521 -0.00208,-6.97705c0.02209,-2.698 0.11304,-5.396 0.10706,-8.09399c-0.021,-11.03101 -0.06006,-22.06201 -0.10706,-33.09204z" fill="url(#RadialGradient1414)"></path></g><g><title>Path 78</title><path d="M139.34497,220.21399v0l-10.00293,-10.00293v0h-9.45801v0l-6.03406,6.03394c-0.30396,0.30396 -0.71692,0.47498 -1.14795,0.47498h-26.06799c0.45898,1.18799 0.94995,2.35706 1.495,3.49402h13.91394v0z" fill="url(#RadialGradient1428)"></path></g><g><title>Path 79</title><path d="M128.32397,271.125v0l-13.38293,-13.38306c-0.01001,1.72205 -0.01501,3.44507 -0.02405,5.16809l11.95105,11.95203v0h13.04993c0.89697,0 1.62402,0.72693 1.62402,1.6239v40.56409v0l3.29199,1.99194v0v-47.44202v0h-15.36194c-0.43103,0 -0.84399,-0.17102 -1.14807,-0.47498z" fill="url(#RadialGradient1442)"></path></g><g><title>Path 80</title><path d="M118.06299,207.43799v0l23.78406,-23.78394c0.30493,-0.30408 0.7179,-0.4751 1.14795,-0.4751h9.94202c-0.88,-0.83899 -1.79797,-1.65601 -2.76501,-2.44299c-2.86304,-2.33496 -5.93005,-4.22498 -9.18201,-5.70093l-27.14001,27.13892c-0.30396,0.30505 -0.71692,0.47607 -1.14795,0.47607h-5.23999c-0.16602,0.05701 -24.11304,0 -24.11304,0c0.09497,1.08704 0.21704,2.17102 0.38696,3.24402c0.41809,2.62598 1.00708,5.151 1.75903,7.578h26.53406v0z" fill="url(#RadialGradient1456)"></path></g><g><title>Path 81</title><path d="M105.31299,176.95203v0h-22.11401c-0.02295,0.48694 -0.047,0.974 -0.05298,1.46497c-0.07996,6.599 -0.08997,13.19995 -0.01501,19.79895c0.005,0.39502 0.02002,0.79004 0.03101,1.18604h22.151v0z" fill="url(#RadialGradient1470)"></path></g><g><title>Path 82</title><path d="M108.56104,175.328v24.07397v0h3.46802v0l25.69189,-25.69202c-2.57397,-0.91895 -5.25391,-1.60193 -8.03491,-2.05396c-0.69202,-0.11206 -1.22009,0.02002 -1.78406,0.45801c-2.45996,1.91296 -4.93994,3.802 -7.45898,5.63794c-0.58496,0.42603 -1.32605,0.76306 -2.03699,0.87c-1.92297,0.29004 -3.65405,-0.75 -4.33704,-2.4469c-0.73096,-1.81604 -0.21399,-3.69702 1.40405,-4.9281c5.11499,-3.89099 10.23901,-7.7699 15.36194,-11.651c0.31201,-0.23694 0.62708,-0.46997 0.93909,-0.70593h-12.99805v0l-4.68005,3.349c-0.276,0.19702 -0.60693,0.30298 -0.94495,0.30298h-26.64099c-1.55603,3.59302 -2.55701,7.32605 -3.03503,11.16199h23.46204c0.89697,0 1.62402,0.72705 1.62402,1.62402z" fill="url(#RadialGradient1484)"></path></g><g><title>Path 83</title><path d="M125.047,277.63403v0l-10.15198,-10.15198c-0.00598,1.49194 -0.01807,2.98389 -0.021,4.47595c-0.01099,4.62 0.00195,9.23999 0.01599,13.86096c0.00696,2.11707 0.04102,13.65808 0.047,15.89807l23.35693,13.52698v0v-37.13403v0h-12.0979c-0.43103,0 -0.84399,-0.17102 -1.14905,-0.47595z" fill="url(#RadialGradient1498)"></path></g><g><title>Path 84</title><path d="M221.09998,196.43701v0v-11.63806c-3.29895,-0.12292 -6.53296,-1.01001 -9.68201,-2.76392c-2.72693,-1.51904 -4.94995,-3.42603 -6.70398,-5.67908v13.052c0,18.7771 -15.27698,34.05408 -34.05493,34.05408h-17.03601v0h-51.58008v0h-12.18591c0.75,1.297 1.56091,2.55798 2.43188,3.78101h98.005c16.98608,0 30.80603,-13.81909 30.80603,-30.80603z" fill="url(#RadialGradient1512)"></path></g></g><g><title>Path 85</title><path d="M235.80603,162.83606c0.05896,7.29395 -5.56104,13.21094 -13.08105,13.75598c-6.83496,0.49597 -13.36096,-4.81409 -14.24902,-11.73706c-0.26489,-2.06897 -0.172,-4.18799 -0.18591,-6.28394c-0.02405,-3.5531 -0.0011,-7.10706 0,-10.66101c0.00098,-5.61206 0,-11.224 0,-16.83704h-0.01501c0,-2.78796 0.00696,-5.57605 0.01001,-8.36401l4.77295,4.77405v24.94397c0,0.89697 0.72705,1.62402 1.62402,1.62402h5.93396v4.84497c-1.60901,0.599 -2.75793,2.14502 -2.75793,3.96301c0,2.33704 1.89502,4.23096 4.23193,4.23096c2.33704,0 4.23206,-1.89392 4.23206,-4.23096c0,-1.703 -1.00806,-3.16699 -2.45801,-3.83801v-35.33398c0,-0.43005 -0.17102,-0.84302 -0.47498,-1.14807l-6.51404,-6.51294l12.552,-12.552c3.755,2.42395 6.35803,6.58606 6.37695,11.19897c0.047,11.03003 0.08606,22.06104 0.10706,33.09204c0.00598,2.698 -0.08496,5.396 -0.10706,8.09399c-0.01794,2.32495 -0.01697,4.651 0.00208,6.97705zM229.94702,200.52405c-0.58301,12.8949 -5.49402,23.98889 -14.58203,33.15601c-8.16602,8.23889 -18.08301,13.02893 -29.58899,14.479c-2.00403,0.25195 -4.04102,0.2489 -6.06299,0.36194c-1.70898,0.09595 -2.99402,0.88306 -3.66406,2.46301c-0.677,1.59497 -0.427,3.11597 0.74207,4.42297c0.82495,0.92297 1.89893,1.323 3.13196,1.31897c5.91199,-0.0199 11.69006,-0.90698 17.33508,-2.66199c0.26892,-0.08301 0.54089,-0.15393 0.93091,-0.26392v0.90601c-0.00098,3.78394 -0.00098,7.56897 -0.00195,11.35291h-20.53503l-10.35303,-10.35291v-25.21509h22.995c18.7771,0 34.05408,-15.276 34.05408,-34.05396v-11.76001c1.85596,-0.20605 3.73096,-0.63599 5.62195,-1.28601c0.02905,0.20801 0.06201,0.33105 0.06201,0.45398c-0.01294,5.56006 0.16602,11.12903 -0.08496,16.67908zM195.81299,303.50903l-28.51404,-28.20703v-15.00305l8.5321,8.5321c0.30396,0.30493 0.71692,0.47595 1.14795,0.47595h21.20801c-0.00098,3.31799 -0.00195,6.63599 -0.00195,9.95398c0,4.29602 -0.005,18.06897 0.00793,22.45605zM157.34801,325.79503l0.00001,-0.00001v0.00002zM157.34802,230.49096h6.703v45.48401c0,0.43103 0.17102,0.84399 0.47595,1.14807l27.901,27.979l-35.07995,20.69298zM154.09998,237.48804h-19.88293l-8.80603,-6.99707h28.68896zM154.09998,324.41797l-6.01794,-3.78296v-50.65906c0,-0.89697 -0.72705,-1.6239 -1.62402,-1.6239h-16.31299l-14.28906,-14.28809c0.995,0.28406 1.96704,0.56409 2.93506,0.81702c4.75098,1.23706 9.58594,1.83704 14.49194,1.84106c2.09802,0.00098 3.71301,-1.34705 4.09607,-3.354c0.36597,-1.91101 -0.646,-3.82703 -2.48108,-4.5271c-0.58997,-0.22498 -1.26489,-0.30591 -1.90198,-0.31396c-10.80493,-0.13696 -20.63098,-3.31299 -29.297,-9.75293c-3.37195,-2.505 -6.33301,-5.26904 -8.89099,-8.28308h25.38196l12.45007,9.89307c0.28699,0.22803 0.64294,0.35193 1.01001,0.35193h20.44995zM144.83398,319.04199l-3.29199,-1.99194v-40.56409c0,-0.89697 -0.72705,-1.6239 -1.62402,-1.6239h-13.04993l-11.95105,-11.95203c0.00903,-1.72302 0.01404,-3.44604 0.02405,-5.16809l13.38293,13.38306c0.30408,0.30396 0.71704,0.47498 1.14807,0.47498h15.36194zM138.29395,315.24402l-23.35693,-13.52698c-0.00598,-2.23999 -0.04004,-13.78101 -0.047,-15.89807c-0.01404,-4.62097 -0.02698,-9.24097 -0.01599,-13.86096c0.00293,-1.49207 0.01501,-2.98401 0.021,-4.47595l10.15198,10.15198c0.30505,0.30493 0.71802,0.47595 1.14905,0.47595h12.0979zM170.65906,223.46204c18.77795,0 34.05493,-15.27698 34.05493,-34.05408v-13.052c1.75403,2.25305 3.97705,4.16003 6.70398,5.67908c3.14905,1.75391 6.38306,2.64099 9.68201,2.76392v11.63806c0,16.98694 -13.81995,30.80603 -30.80603,30.80603h-98.005c-0.87097,-1.22302 -1.68188,-2.48401 -2.43188,-3.78101zM86.63403,216.71996c0,0 0,0.00001 0,0.00001h0zM112.70202,216.71997c0.43103,0 0.84399,-0.17102 1.14795,-0.47498l6.03406,-6.03394h9.45801l10.00293,10.00293h-51.21594c-0.54504,-1.13696 -1.03601,-2.30602 -1.495,-3.49401zM83.73596,205.89404c-0.16992,-1.073 -0.29199,-2.15698 -0.38696,-3.24402c0,0 23.94702,0.05701 24.11304,0h5.23999c0.43103,0 0.84399,-0.17102 1.14795,-0.47607l27.14001,-27.13892c3.25195,1.47595 6.31897,3.36597 9.18201,5.70093c0.96704,0.78699 1.88501,1.604 2.76501,2.44299h-9.94202c-0.43005,0 -0.84302,0.17102 -1.14795,0.4751l-23.78406,23.78394l-6.03394,6.03406h-26.53406c-0.75195,-2.427 -1.34094,-4.95203 -1.75903,-7.578zM83.13098,198.21594c-0.07495,-6.599 -0.06494,-13.19995 0.01501,-19.79895c0.00598,-0.49097 0.03003,-0.97803 0.05298,-1.46497h22.11401v22.44995h-22.151c-0.01099,-0.396 -0.026,-0.79102 -0.03101,-1.18604zM86.51001,162.54199h26.64099c0.33801,0 0.66895,-0.10596 0.94495,-0.30298l4.68005,-3.349h12.99805c-0.31201,0.23596 -0.62708,0.46899 -0.93909,0.70593c-5.12292,3.8811 -10.24695,7.76001 -15.36194,11.651c-1.61804,1.23108 -2.13501,3.11206 -1.40405,4.9281c0.68298,1.6969 2.41406,2.73694 4.33704,2.4469c0.71094,-0.10693 1.45203,-0.44397 2.03699,-0.87c2.51904,-1.83594 4.99902,-3.72498 7.45898,-5.63794c0.56396,-0.43799 1.09204,-0.57007 1.78406,-0.45801c2.78101,0.45203 5.46094,1.13501 8.03491,2.05396l-25.69189,25.69202h-3.46802v-24.07397c0,-0.89697 -0.72705,-1.62402 -1.62402,-1.62402h-23.46204c0.47803,-3.83594 1.479,-7.56897 3.03503,-11.16199zM90.00098,155.797c0.35107,-0.54504 0.71802,-1.07898 1.09497,-1.60803h22.05505c0.33801,0 0.66895,-0.10596 0.94495,-0.30298l17.11304,-12.24402c0.69104,0.48901 1.53101,0.77905 2.44104,0.77905c2.33801,0 4.23193,-1.89502 4.23193,-4.23206c0,-2.33691 -1.89392,-4.23193 -4.23193,-4.23193c-2.33704,0 -4.23108,1.89502 -4.23108,4.23193c0,0.23804 0.02405,0.46899 0.06201,0.69604l-16.85193,12.05603h-19.05408c0.48999,-0.60901 0.98401,-1.21606 1.479,-1.81909c2.93103,-3.573 6.83606,-6.026 10.45105,-8.79895c6.224,-4.77502 12.49902,-9.48206 18.75195,-14.21899c9.09802,-6.89404 22.09509,-2.14795 24.38501,9.03699c1.24707,6.08801 -0.69995,11.27698 -5.58191,15.17102c-2.2821,1.82104 -4.61401,3.57996 -6.95203,5.32996h-17.85303c-0.33899,0 -0.67004,0.10608 -0.94495,0.30298l-4.68103,3.349h-24.60498c0.60498,-1.19995 1.25598,-2.375 1.97693,-3.49695zM126.04895,115.91504c-1.58899,0.55994 -3.146,1.30798 -4.66589,2.26599c-0.09302,0.05896 -0.18408,0.12097 -0.2771,0.18103l26.73206,-81.54309h4.14099zM107.20898,128.10706c4.01196,-11.54602 8.026,-23.09204 12.03906,-34.63806c4.27698,-12.30701 8.54993,-24.61401 12.828,-36.92004c3.87793,-11.15601 7.74194,-22.31494 11.646,-33.46094c2.30994,-6.59601 8.7749,-10.48999 15.34692,-9.31403c8.63501,1.54602 13.57104,10.09802 10.65308,18.41302c-2.00305,5.70697 -3.97302,11.42401 -5.94299,17.14197c-2.078,6.03101 -4.15405,12.06201 -6.229,18.09399h-7.07007c-0.703,0 -1.32593,0.45203 -1.54395,1.12l-15.05908,46.13501c-1.38391,-0.03101 -2.75098,0.06799 -4.0979,0.28699l27.34595,-83.41797c2.18396,-0.16797 3.90503,-1.98901 3.90503,-4.21503c0,-2.33795 -1.89502,-4.23199 -4.23206,-4.23199c-2.33691,0 -4.23193,1.89404 -4.23193,4.23199c0,1.28101 0.5719,2.42804 1.4729,3.20404l-0.995,3.03497h-6.38293c-0.70203,0 -1.32397,0.45099 -1.54297,1.11804l-28.46899,86.84393c-1.37305,1.04602 -2.73206,2.11499 -4.11401,3.14502c-1.78601,1.33105 -3.55298,2.68604 -5.32898,4.03003l-0.14307,-0.09705c0.04797,-0.16797 0.08899,-0.33899 0.146,-0.50391zM109.15796,58.66394c-1.76892,-5.18091 -3.53992,-10.36194 -5.30994,-15.54297h4.69495l5.37805,15.32202c0.22803,0.651 0.84192,1.08606 1.53198,1.08606h6.65002l0.12903,0.38196c-1.83105,5.26501 -3.66406,10.53003 -5.49609,15.79504c-0.25891,0.74597 -0.53296,1.48694 -0.87292,2.43298c-0.17908,-0.44507 -0.28308,-0.67102 -0.36206,-0.90503c-2.11597,-6.18896 -4.22998,-12.38 -6.34302,-18.57007zM126.09595,48.80298c-0.70801,2.03601 -1.41699,4.07104 -2.125,6.10706l-5.51099,-16.32806h4.04907zM100.13098,32.24103c-0.62097,-1.81104 -0.98804,-3.66901 -0.94495,-5.56903c0.03699,-1.63599 0.51099,-3.18701 1.16492,-4.71997c3.35205,-7.85901 13.64905,-11.52802 21.67505,-5.06903c1.81104,1.45703 3.16699,3.375 3.92603,5.67798c1.38098,4.18604 2.85803,8.34003 4.32092,12.49902c0.23206,0.659 0.17102,1.245 -0.0509,1.88202c-0.80505,2.31201 -1.60803,4.62396 -2.41309,6.935l-2.61694,-7.45703c-0.22803,-0.64996 -0.84302,-1.086 -1.53198,-1.086h-6.29602l-1.62805,-4.82397c0.88403,-0.77502 1.44409,-1.91003 1.44409,-3.17804c0,-2.33795 -1.89404,-4.23199 -4.23108,-4.23199c-2.33801,0 -4.23193,1.89404 -4.23193,4.23199c0,2.23901 1.73999,4.06702 3.94092,4.21704l8.34802,24.73199h-4.40198l-5.37695,-15.32202c-0.229,-0.64996 -0.84302,-1.086 -1.53308,-1.086h-6.95496c-0.87,-2.54297 -1.73499,-5.08899 -2.60803,-7.63196zM147.01294,97.68701c-1.45496,4.16602 -2.87891,8.34204 -4.31897,12.51196c-0.63293,1.83398 -1.27295,3.66504 -1.90295,5.47607c-0.15601,0.00891 -0.23596,0.02991 -0.30798,0.01489c-0.177,-0.03699 -0.35107,-0.09094 -0.526,-0.13696c-0.927,-0.24097 -1.84802,-0.42798 -2.76306,-0.57092l14.46399,-44.31104h4.77307c-2.30408,6.69495 -4.60608,13.39099 -6.91504,20.08398c-0.80103,2.32202 -1.69202,4.61304 -2.50305,6.93201zM163.59204,132.91394c0.50098,1.4751 0.80591,2.97009 0.78198,4.56506c-0.06799,4.54602 -0.13,9.09705 0.00403,13.64099c0.29993,10.20801 8.146,19.04004 18.25989,20.66296c0.60303,0.09705 1.1991,0.16406 1.79102,0.21606v17.40894c0,16.98608 -13.81897,30.80603 -30.80591,30.80603h-9.68506l-12.77502,-12.77502c-0.30493,-0.30493 -0.71802,-0.47595 -1.14795,-0.47595h-6.88306l20.53601,-20.53601h12.35901c5.01697,5.849 8.23206,12.76404 9.61902,20.73401c0.32898,1.89294 1.41895,3.01904 3.19995,3.50098c1.37109,0.37 3.495,-0.17395 4.198,-1.521c0.41211,-0.78894 0.78406,-1.80103 0.65503,-2.63196c-0.39502,-2.552 -0.80994,-5.14404 -1.62598,-7.58301c-5.64502,-16.87207 -16.974,-28.09106 -33.86401,-33.69104c-0.21497,-0.07104 -0.42395,-0.15796 -0.80298,-0.29993c2.09595,-1.58911 4.06396,-3.07104 6.02197,-4.56702c1.89807,-1.45007 3.86401,-2.82507 5.66602,-4.38904c10.95801,-9.51001 10.776,-26.505 -0.36401,-35.81995c-0.48303,-0.40308 -0.56299,-0.70203 -0.35498,-1.29211c1.69299,-4.797 3.34399,-9.60999 5.00903,-14.41797c0.04797,-0.13892 0.11597,-0.271 0.25793,-0.599c0.19409,0.50903 0.33606,0.849 0.45398,1.19604c3.16907,9.28796 6.33911,18.57593 9.49609,27.86792zM175.06104,94.40002c0.67896,-0.98108 1.448,-1.84705 2.30103,-2.59802v41.12305l-4.802,4.80298c-0.0011,-3.82605 0.00098,-7.65198 0.00098,-11.47803c0,-7.948 0.01392,-15.89697 -0.00708,-23.84497c-0.00793,-2.94604 0.84106,-5.59497 2.50708,-8.005zM180.13501,134.74597c0.30493,-0.30396 0.47595,-0.71692 0.47595,-1.14795v-43.87305c0.45508,-0.203 0.92102,-0.39099 1.40906,-0.54492c2.948,-0.93005 5.94592,-0.88501 8.86902,0.17798c5.71497,2.07703 9.20093,7.16492 9.20398,13.39392c0,0.06006 0,0.12109 0,0.18103l-15.18799,15.18896c-0.30505,0.30408 -0.47607,0.71704 -0.47607,1.14807v26.94995c-1.53101,0.63708 -2.60791,2.146 -2.60791,3.90808c0,2.33691 1.8949,4.23193 4.23193,4.23193c2.33704,0 4.23206,-1.89502 4.23206,-4.23193c0,-1.76208 -1.07703,-3.271 -2.60803,-3.90808v-7.25696l8.36401,-8.36401c0.30493,-0.30396 0.47595,-0.71704 0.47595,-1.14795v-5.2771l3.57703,-3.5769c0,6.13 0.00098,12.26099 0.00098,18.39099c0,3.70691 0.02405,7.41394 -0.01697,11.12c-0.02002,1.78601 -0.23596,3.526 -1.00403,5.21301c-1.36597,2.99695 -3.32996,5.37 -6.26392,6.92993c-9.21106,4.896 -20.26306,-1.73499 -20.2511,-12.15503c0.00305,-2.59192 0,-5.18298 0.0011,-7.7749zM200.09399,116.00403l-6.349,6.349c-0.30505,0.30493 -0.47595,0.71802 -0.47595,1.14893v5.276l-5.59204,5.59204v-14.427l12.41699,-12.41699c0,2.82605 0,5.65197 0,8.47802zM200.46107,167.08997c0,0 -0.00001,0 -0.00001,0c0,0 0,0 0,0zM201.46497,170.48304v18.92493c0,16.98608 -13.81897,30.80603 -30.80591,30.80603h-2.53906c11.54602,-5.45593 19.55701,-17.21094 19.55701,-30.80603v-17.35291c4.39294,-0.24304 8.45996,-1.79907 12.19202,-4.64905c0.12292,-0.09497 0.245,-0.19299 0.37402,-0.28003c0.03796,-0.026 0.0979,-0.01794 0.21801,-0.03601c0.26599,1.18005 0.60193,2.31006 1.00391,3.39307zM220.61597,124.35999v26.44299h-4.30994v-23.99292c0,-0.43103 -0.17102,-0.84412 -0.47607,-1.14807l-7.55493,-7.55603c-0.00305,-0.9259 0,-1.85193 -0.00708,-2.77795c-0.00696,-1.04602 0.09705,-2.05505 0.297,-3.01904zM222.43604,101.26794c1.34692,0.0321 2.65991,0.2771 3.90491,0.6991l-11.76196,11.76196l-4.82397,-4.82397c2.40198,-4.75208 7.40405,-7.76404 12.68103,-7.63708zM244.01794,114.43896c-0.19189,-10.30493 -7.948,-19.34399 -18.14392,-21.03101c-6.58008,-1.08899 -12.53406,0.48499 -17.828,4.69702l-0.02905,-0.00793c-0.53601,-1.55505 -0.95398,-3.08301 -1.57703,-4.52209c-3.71594,-8.57397 -12.3689,-13.84094 -21.66699,-13.12695c-2.07593,0.15906 -4.12195,0.60706 -6.12195,1.33203c-3.46106,1.255 -6.427,3.21497 -8.77405,5.99097c-3.89392,4.60706 -6.08691,9.96399 -5.40698,16.38196c0.13501,1.271 0.02197,2.54199 -0.11096,3.81201c-0.03906,0.36804 0.05493,0.70007 -0.172,1.11804c-0.15198,-0.39099 -0.31702,-0.77795 -0.453,-1.17505c-1.74097,-5.11096 -3.43103,-10.24097 -5.25403,-15.323c-0.39795,-1.10901 -0.45398,-1.96899 0.02905,-3.06396c0.69702,-1.58105 14.83997,-42.58594 19.15698,-55.23999c4.62097,-13.55103 -5.10205,-27.95398 -19.39807,-28.84998c-9.99792,-0.62604 -18.89893,5.29596 -22.25891,14.81097c-0.33606,0.95099 -0.66406,1.90497 -1.18103,2.89197c-0.255,-0.73999 -0.50903,-1.47998 -0.76404,-2.21899c-2.85901,-8.284 -8.53491,-13.44299 -17.14697,-15.15399c-10.43604,-2.073 -21.052,4.13702 -24.60303,14.224c-1.40991,4.00299 -1.78101,8.104 -0.70398,12.19c0.94006,3.56299 2.23901,7.034 3.427,10.52899c3.33301,9.80701 6.69104,19.60498 10.03699,29.40698c2.02002,5.91809 4.02808,11.84106 6.06604,17.75305c0.21802,0.63403 0.21704,1.32202 -0.00403,1.95593c-4.46094,12.76807 -8.89502,25.54602 -13.33496,38.32104c-0.83508,2.40295 -1.85303,5.20703 -2.71008,7.60205c-0.10596,0.2959 -0.08496,0.16797 -0.31091,0.38696c-1.89307,1.82996 -3.88806,3.55994 -5.703,5.46301c-5.92297,6.20898 -9.901,13.52393 -12.22302,21.74695c-1.10205,3.90601 -1.91602,10.45007 -1.93506,14.50903c-0.02991,6.35706 -0.07397,12.71594 0.0321,19.07104c0.01196,0.72998 0.04199,1.46094 0.08789,2.19202c0.64502,10.42993 6.21008,25.57593 12.75403,33.724c5.047,6.28491 11.12402,11.31299 18.22205,15.07495c0.52002,0.27502 0.755,0.55994 0.75293,1.18298c-0.02698,7.06799 -0.02197,14.13501 -0.026,21.203c-0.00098,2.25195 -0.01392,4.50403 0.0011,6.75598c0.01392,2.22302 0.08093,4.44702 0.07996,6.67004c0,2.69897 -0.06494,5.88 -0.06995,8.57898c0,0.13501 0.021,0.26404 0.03296,0.396v11.38098c0,2.56396 48.69202,28.11902 48.69202,28.11902c0,0 50.98401,-27.93604 50.98401,-30.50098v-11.104h-0.07007c0.01599,-2.224 -0.03992,-4.60498 -0.052,-6.70007c-0.00195,-0.36096 0.06409,-0.72192 0.06006,-1.08289c-0.03198,-2.802 -0.11206,-5.6051 -0.10608,-8.4071c0.01807,-8.44092 0.0741,-16.88196 0.09509,-25.323c0.00098,-0.47192 0.26294,-0.90295 0.6759,-1.12891c14.8761,-8.16101 24.66602,-20.349 29.20007,-36.66309c1.35803,-4.88599 1.98193,-9.953 1.979,-15.02393c-0.00305,-6.60107 -0.01001,-13.20203 0.021,-19.802c0.00195,-0.41309 0.23096,-1.00598 0.495,-1.323c3.22595,-3.8761 5.01599,-8.27209 5.23804,-13.245c0.13501,-3.03406 0.06494,-47.00903 0.0199,-49.45508z" fill="url(#RadialGradient1526)"></path></g></g></g></svg>